<svg width="20" height="20" viewBox="0 0 20 20" fill="none" xmlns="http://www.w3.org/2000/svg">
<path d="M6.66666 8.94266V13.8993C6.66683 13.9261 6.67759 13.9517 6.69657 13.9706C6.71556 13.9894 6.74123 14 6.76799 14H13.2347C13.261 13.9993 13.2859 13.9884 13.3044 13.9696C13.3228 13.9508 13.3332 13.9256 13.3333 13.8993V8.94266L9.99999 5.60933L6.66666 8.94266Z" fill="#084C61"/>
<path d="M10 0C8.02219 0 6.08879 0.58649 4.4443 1.6853C2.79981 2.78412 1.51809 4.3459 0.761209 6.17316C0.00433294 8.00043 -0.1937 10.0111 0.192152 11.9509C0.578004 13.8907 1.53041 15.6725 2.92894 17.0711C4.32746 18.4696 6.10929 19.422 8.0491 19.8078C9.98891 20.1937 11.9996 19.9957 13.8268 19.2388C15.6541 18.4819 17.2159 17.2002 18.3147 15.5557C19.4135 13.9112 20 11.9778 20 10C19.997 7.34875 18.9425 4.80696 17.0678 2.93224C15.193 1.05753 12.6512 0.00299965 10 0ZM15.4713 10.138C15.3691 10.2449 15.2326 10.3126 15.0856 10.3294C14.9386 10.3462 14.7904 10.3111 14.6667 10.23V13.8967C14.6668 14.2774 14.5158 14.6426 14.2468 14.912C13.9777 15.1814 13.6127 15.333 13.232 15.3333H6.76534C6.38552 15.3323 6.0216 15.1808 5.75322 14.912C5.48484 14.6433 5.33386 14.2791 5.33334 13.8993V10.2327C5.20819 10.3094 5.06098 10.342 4.91515 10.3253C4.76932 10.3086 4.63327 10.2436 4.52867 10.1407C4.40369 10.0156 4.33348 9.84611 4.33348 9.66933C4.33348 9.49256 4.40369 9.32302 4.52867 9.198L5.52867 8.198L9.52867 4.198C9.65369 4.07302 9.82323 4.00281 10 4.00281C10.1768 4.00281 10.3463 4.07302 10.4713 4.198L14.4713 8.198L15.4713 9.198C15.5955 9.32291 15.6652 9.49187 15.6652 9.668C15.6652 9.84412 15.5955 10.0131 15.4713 10.138Z" fill="#084C61"/>
</svg>
